<?xml version="1.0" standalone="no"?>
<!DOCTYPE svg PUBLIC "-//W3C//DTD SVG 20010904//EN"
 "http://www.w3.org/TR/2001/REC-SVG-20010904/DTD/svg10.dtd">
<svg version="1.0" xmlns="http://www.w3.org/2000/svg"
 width="260.000000pt" height="260.000000pt" viewBox="0 0 260.000000 260.000000"
 preserveAspectRatio="xMidYMid meet">

<g transform="translate(0.000000,260.000000) scale(0.100000,-0.100000)"
fill="#000000" stroke="none">
<path d="M781 1819 c-42 -42 -43 -95 -2 -141 25 -28 36 -33 76 -33 40 0 51 5
76 33 63 70 17 171 -78 172 -33 0 -48 -6 -72 -31z"/>
<path d="M783 1445 c-33 -33 -35 -39 -30 -82 7 -63 40 -93 103 -93 99 0 141
105 70 176 -48 48 -95 47 -143 -1z"/>
<path d="M803 1091 c-39 -24 -53 -49 -53 -94 0 -94 124 -135 188 -62 74 86
-39 216 -135 156z"/>
</g>
</svg>
